<svg class="border shadow-md dark:border-slate-700" viewBox="0 0 1689.6 950.4" style="width: 1689.<svg class="border shadow-md dark:border-slate-700" viewBox="0 0 1689.6 950.4" style="width: 1689.6px; height: 950.4px;" xmlns="http://www.w3.org/2000/svg" preserveAspectRatio="none"><rect class="bg" id="bg" x="0" y="0" width="1689.6" height="950.4" fill="#462e2e" style="--darkreader-inline-fill: var(--darkreader-background-ffffff, #181a1b);" data-darkreader-inline-fill=""></rect><g transform="rotate(0 844.8 475.2)"><path d="M -472.40 -49.20 S -246.20 -88.80
            0.00 -49.20 99.40 -104.20
            472.40 -49.20 464.80 -88.80
            944.80 -49.20 1070.20 -112.20
            1417.20 -49.20 1643.40 -88.80
            1889.60 -49.20 2115.80 -88.80
            2362.00 -49.20 h 110 V 1150.4 H -472.40 Z" fill="#FF601C" style="--darkreader-inline-fill: var(--darkreader-background-1ba4ff, #0071bc);" data-darkreader-inline-fill="" id="-1"></path><path d="M -472.40 30.00 S -310.00 -9.60
            0.00 30.00 214.40 -9.60
            472.40 30.00 473.80 -33.00
            944.80 30.00 1091.20 -9.60
            1417.20 30.00 1643.40 -9.60
            1889.60 30.00 2108.00 -9.60
            2362.00 30.00 h 110 V 1150.4 H -472.40 Z" fill="#f05a22" style="--darkreader-inline-fill: var(--darkreader-background-1c97f2, #0b6fb8);" data-darkreader-inline-fill="" id="0"></path><path d="M -472.40 109.20 S -246.20 69.60
            0.00 109.20 226.20 69.20
            472.40 109.20 698.60 69.60
            944.80 109.20 958.20 69.60
            1417.20 109.20 1643.40 69.60
            1889.60 109.20 2025.00 32.20
            2362.00 109.20 h 110 V 1150.4 H -472.40 Z" fill="#e15428" style="--darkreader-inline-fill: var(--darkreader-background-1d8ae5, #156cb5);" data-darkreader-inline-fill="" id="1"></path><path d="M -472.40 188.40 S -440.00 126.40
            0.00 188.40 69.40 148.80
            472.40 188.40 698.60 148.80
            944.80 188.40 1171.00 148.80
            1417.20 188.40 1641.60 148.80
            1889.60 188.40 1930.00 148.80
            2362.00 188.40 h 110 V 1150.4 H -472.40 Z" fill="#d24e2e" style="--darkreader-inline-fill: var(--darkreader-background-1e7dd8, #1864ad);" data-darkreader-inline-fill="" id="2"></path><path d="M -472.40 267.60 S -246.20 228.00
            0.00 267.60 226.20 191.60
            472.40 267.60 698.60 204.60
            944.80 267.60 1171.00 220.60
            1417.20 267.60 1643.40 228.00
            1889.60 267.60 2115.80 228.00
            2362.00 267.60 h 110 V 1150.4 H -472.40 Z" fill="#c34834" style="--darkreader-inline-fill: var(--darkreader-background-1f70cb, #195aa2);" data-darkreader-inline-fill="" id="3"></path><path d="M -472.40 346.80 S -460.00 307.20
            0.00 346.80 116.40 307.20
            472.40 346.80 698.60 307.20
            944.80 346.80 1042.20 307.20
            1417.20 346.80 1412.60 292.80
            1889.60 346.80 1905.00 307.20
            2362.00 346.80 h 110 V 1150.4 H -472.40 Z" fill="#b4423a" style="--darkreader-inline-fill: var(--darkreader-background-2063be, #1a4f98);" data-darkreader-inline-fill="" id="4"></path><path d="M -472.40 426.00 S -246.20 359.00
            0.00 426.00 226.20 386.40
            472.40 426.00 531.80 386.40
            944.80 426.00 943.20 386.40
            1417.20 426.00 1643.40 369.00
            1889.60 426.00 2103.00 384.00
            2362.00 426.00 h 110 V 1150.4 H -472.40 Z" fill="#a53c40" style="--darkreader-inline-fill: var(--darkreader-background-2156b1, #1a458e);" data-darkreader-inline-fill="" id="5"></path><path d="M -472.40 505.20 S -448.00 465.60
            0.00 505.20 226.20 438.20
            472.40 505.20 698.60 458.20
            944.80 505.20 1171.00 465.60
            1417.20 505.20 1541.60 465.60
            1889.60 505.20 1993.00 444.20
            2362.00 505.20 h 110 V 1150.4 H -472.40 Z" fill="#963646" style="--darkreader-inline-fill: var(--darkreader-background-2249a4, #1b3a83);" data-darkreader-inline-fill="" id="6"></path><path d="M -472.40 584.40 S -246.20 540.40
            0.00 584.40 226.20 544.80
            472.40 584.40 680.80 516.40
            944.80 584.40 1171.00 544.80
            1417.20 584.40 1447.60 544.80
            1889.60 584.40 2115.80 527.40
            2362.00 584.40 h 110 V 1150.4 H -472.40 Z" fill="#87304c" style="--darkreader-inline-fill: var(--darkreader-background-233c97, #1c3079);" data-darkreader-inline-fill="" id="7"></path><path d="M -472.40 663.60 S -353.00 611.60
            0.00 663.60 224.40 624.00
            472.40 663.60 597.80 605.60
            944.80 663.60 1171.00 608.60
            1417.20 663.60 1643.40 624.00
            1889.60 663.60 2115.80 624.00
            2362.00 663.60 h 110 V 1150.4 H -472.40 Z" fill="#782a52" style="--darkreader-inline-fill: var(--darkreader-background-242f8a, #1d266e);" data-darkreader-inline-fill="" id="8"></path><path d="M -472.40 742.80 S -268.00 703.20
            0.00 742.80 226.20 670.80
            472.40 742.80 698.60 703.20
            944.80 742.80 1053.20 703.20
            1417.20 742.80 1494.60 701.80
            1889.60 742.80 2115.80 703.20
            2362.00 742.80 h 110 V 1150.4 H -472.40 Z" fill="#692458" style="--darkreader-inline-fill: var(--darkreader-background-25227d, #1e1b64);" data-darkreader-inline-fill="" id="9"></path><path d="M -472.40 822.00 S -246.20 782.40
            0.00 822.00 226.20 782.40
            472.40 822.00 507.80 762.00
            944.80 822.00 1059.20 768.00
            1417.20 822.00 1643.40 759.00
            1889.60 822.00 2065.00 774.00
            2362.00 822.00 h 110 V 1150.4 H -472.40 Z" fill="#5a1e5e" id="10"></path><path d="M -472.40 901.20 S -246.20 861.60
            0.00 901.20 57.40 861.20
            472.40 901.20 698.60 861.60
            944.80 901.20 1171.00 861.60
            1417.20 901.20 1495.60 837.20
            1889.60 901.20 2095.00 861.60
            2362.00 901.20 h 110 V 1150.4 H -472.40 Z" fill="#4b1864" id="11"></path></g></svg>
