<svg class="border shadow-md dark:border-slate-700" viewBox="0 0 1689.6 950.4" style="width: 1689.6px; height: 950.4px;" xmlns="http://www.w3.org/2000/svg" preserveAspectRatio="none"><rect class="bg" id="bg" x="0" y="0" width="1689.6" height="950.4" fill="#ffffff" style="--darkreader-inline-fill: var(--darkreader-background-ffffff, #181a1b);" data-darkreader-inline-fill=""/><g transform="rotate(0 844.8 475.2)"><path id="-1" d="M -314.93 -105.77 S -180.00 -192.77&#xA;            0.00 -105.77 147.47 -220.77&#xA;            314.93 -105.77 462.40 -187.77&#xA;            629.87 -105.77 777.33 -227.77&#xA;            944.80 -105.77 1092.27 -173.66&#xA;            1259.73 -105.77 1380.67 -190.77&#xA;            1574.67 -105.77 1722.13 -186.77&#xA;            1889.60 -105.77 2037.07 -209.77&#xA;            2204.53 -105.77 h 110 V 1150.4 H -314.93 Z" fill="#FF9D1C"/><path id="0" d="M -314.93 30.00 S -322.00 -37.89&#xA;            0.00 30.00 -0.07 -45.00&#xA;            314.93 30.00 452.87 -37.89&#xA;            629.87 30.00 777.33 -37.89&#xA;            944.80 30.00 1074.73 -37.89&#xA;            1259.73 30.00 1337.67 -59.00&#xA;            1574.67 30.00 1722.13 -37.89&#xA;            1889.60 30.00 2037.07 -37.89&#xA;            2204.53 30.00 h 110 V 1150.4 H -314.93 Z" fill="#e28b18"/><path id="1" d="M -314.93 165.77 S -167.47 97.89&#xA;            0.00 165.77 39.93 40.77&#xA;            314.93 165.77 462.40 97.89&#xA;            629.87 165.77 777.33 71.77&#xA;            944.80 165.77 1092.27 76.77&#xA;            1259.73 165.77 1407.20 36.77&#xA;            1574.67 165.77 1573.60 97.89&#xA;            1889.60 165.77 2037.07 64.77&#xA;            2204.53 165.77 h 110 V 1150.4 H -314.93 Z" fill="#c57914"/><path id="2" d="M -314.93 301.54 S -167.47 201.54&#xA;            0.00 301.54 59.93 233.66&#xA;            314.93 301.54 462.40 229.54&#xA;            629.87 301.54 777.33 233.66&#xA;            944.80 301.54 981.73 174.54&#xA;            1259.73 301.54 1407.20 233.66&#xA;            1574.67 301.54 1722.13 172.54&#xA;            1889.60 301.54 1941.53 233.66&#xA;            2204.53 301.54 h 110 V 1150.4 H -314.93 Z" fill="#a86710"/><path id="3" d="M -314.93 437.31 S -167.47 336.31&#xA;            0.00 437.31 107.93 369.43&#xA;            314.93 437.31 323.87 330.31&#xA;            629.87 437.31 684.80 359.31&#xA;            944.80 437.31 1092.27 369.43&#xA;            1259.73 437.31 1251.67 369.43&#xA;            1574.67 437.31 1722.13 369.43&#xA;            1889.60 437.31 1914.53 343.31&#xA;            2204.53 437.31 h 110 V 1150.4 H -314.93 Z" fill="#8b550c"/><path id="4" d="M -314.93 573.09 S -167.47 490.09&#xA;            0.00 573.09 147.47 505.20&#xA;            314.93 573.09 364.87 505.20&#xA;            629.87 573.09 667.80 439.09&#xA;            944.80 573.09 1092.27 505.20&#xA;            1259.73 573.09 1407.20 505.09&#xA;            1574.67 573.09 1722.13 505.20&#xA;            1889.60 573.09 2037.07 505.20&#xA;            2204.53 573.09 h 110 V 1150.4 H -314.93 Z" fill="#6e4308"/><path id="5" d="M -314.93 708.86 S -197.00 640.97&#xA;            0.00 708.86 76.93 640.97&#xA;            314.93 708.86 454.87 640.97&#xA;            629.87 708.86 777.33 640.97&#xA;            944.80 708.86 1092.27 590.86&#xA;            1259.73 708.86 1407.20 584.86&#xA;            1574.67 708.86 1615.60 600.86&#xA;            1889.60 708.86 2037.07 640.97&#xA;            2204.53 708.86 h 110 V 1150.4 H -314.93 Z" fill="#513104"/><path id="6" d="M -314.93 844.63 S -167.47 776.74&#xA;            0.00 844.63 102.93 776.74&#xA;            314.93 844.63 462.40 776.74&#xA;            629.87 844.63 777.33 738.63&#xA;            944.80 844.63 1092.27 734.63&#xA;            1259.73 844.63 1407.20 776.74&#xA;            1574.67 844.63 1703.60 738.63&#xA;            1889.60 844.63 2037.07 770.63&#xA;            2204.53 844.63 h 110 V 1150.4 H -314.93 Z" fill="#341f00"/></g></svg>