<svg class="border shadow-md dark:border-slate-700" viewBox="0 0 1689.6 950.4" style="width: 1689.6px; height: 950.4px;" xmlns="http://www.w3.org/2000/svg" preserveAspectRatio="none"><rect class="bg" id="bg" x="0" y="0" width="1689.6" height="950.4" fill="#000000" style="--darkreader-inline-fill: var(--darkreader-background-ffffff, #181a1b);" data-darkreader-inline-fill=""></rect><g transform="rotate(0 844.8 475.2)"><path d="M -944.80 -65.04 S -482.40 -116.04
            0.00 -65.04 -9.20 -112.56
            944.80 -65.04 1105.60 -112.56
            1889.60 -65.04 2045.40 -112.56
            2834.40 -65.04 h 110 V 1150.4 H -944.80 Z" fill="#833F00" style="--darkreader-inline-fill: var(--darkreader-background-1ba4ff, #0071bc);" data-darkreader-inline-fill="" id="-1"></path><path d="M -944.80 30.00 S -482.40 -24.00
            0.00 30.00 462.40 -17.52
            944.80 30.00 1367.60 -17.52
            1889.60 30.00 2352.00 -17.52
            2834.40 30.00 h 110 V 1150.4 H -944.80 Z" fill="#783900" style="--darkreader-inline-fill: var(--darkreader-background-1c97f2, #0b6fb8);" data-darkreader-inline-fill="" id="0"></path><path id="1" d="M -944.80 125.04 S -694.00 77.52
            0.00 125.04 432.80 48.04
            944.80 125.04 1007.60 77.52
            1889.60 125.04 2128.40 77.52
            2834.40 125.04 h 110 V 1150.4 H -944.80 Z" fill="#6d3300"></path><path id="2" d="M -944.80 220.08 S -513.00 166.08
            0.00 220.08 400.80 165.08
            944.80 220.08 1407.20 164.08
            1889.60 220.08 2178.40 155.08
            2834.40 220.08 h 110 V 1150.4 H -944.80 Z" fill="#622d00"></path><path id="3" d="M -944.80 315.12 S -757.00 267.60
            0.00 315.12 167.80 267.60
            944.80 315.12 1093.60 267.60
            1889.60 315.12 2352.00 267.60
            2834.40 315.12 h 110 V 1150.4 H -944.80 Z" fill="#572700"></path><path id="4" d="M -944.80 410.16 S -555.00 362.64
            0.00 410.16 18.80 357.16
            944.80 410.16 1407.20 343.16
            1889.60 410.16 2352.00 351.16
            2834.40 410.16 h 110 V 1150.4 H -944.80 Z" fill="#4c2100"></path><path id="5" d="M -944.80 505.20 S -482.40 447.20
            0.00 505.20 462.40 415.20
            944.80 505.20 1407.20 446.20
            1889.60 505.20 2352.00 430.20
            2834.40 505.20 h 110 V 1150.4 H -944.80 Z" fill="#411b00"></path><path id="6" d="M -944.80 600.24 S -482.40 552.72
            0.00 600.24 462.40 552.72
            944.80 600.24 1407.20 552.72
            1889.60 600.24 2352.00 552.72
            2834.40 600.24 h 110 V 1150.4 H -944.80 Z" fill="#361500"></path><path id="7" d="M -944.80 695.28 S -482.40 647.76
            0.00 695.28 90.80 617.28
            944.80 695.28 1257.60 647.76
            1889.60 695.28 2352.00 647.76
            2834.40 695.28 h 110 V 1150.4 H -944.80 Z" fill="#2b0f00"></path><path id="8" d="M -944.80 790.32 S -482.40 742.80
            0.00 790.32 462.40 742.80
            944.80 790.32 1303.60 742.80
            1889.60 790.32 2015.40 742.80
            2834.40 790.32 h 110 V 1150.4 H -944.80 Z" fill="#200900"></path><path id="9" d="M -944.80 885.36 S -482.40 806.36
            0.00 885.36 406.80 806.36
            944.80 885.36 1293.60 837.84
            1889.60 885.36 2001.40 832.36
            2834.40 885.36 h 110 V 1150.4 H -944.80 Z" fill="#150300"></path></g></svg>
